<svg width="600" height="500" viewBox="0 0 600 500" fill="none" xmlns="http://www.w3.org/2000/svg">
<path d="M479.284 274.96L465.342 278.471C460.602 279.671 455.517 277.014 454.317 272.274L450.806 258.332C449.606 253.592 452.263 248.507 457.003 247.306L470.944 243.796C475.684 242.596 480.769 245.253 481.969 250.003L485.48 263.944C486.671 268.684 484.024 273.769 479.284 274.96Z" fill="#D4AF37"/>
<path d="M409.079 177.348L398.921 180.015C395.744 180.84 392.302 179.053 391.477 175.876L388.81 165.718C387.985 162.541 389.772 159.099 392.949 158.274L403.107 155.607C406.284 154.782 409.726 156.569 410.551 159.746L413.218 169.904C414.043 173.081 412.256 176.533 409.079 177.348Z" fill="#D4AF37"/>
<path d="M312.395 125.04L300.99 127.877C297.351 128.818 293.414 126.68 292.473 123.041L289.636 111.636C288.695 107.997 290.833 104.06 294.472 103.119L305.877 100.282C309.516 99.341 313.453 101.479 314.394 105.118L317.231 116.523C318.172 120.162 316.034 124.099 312.395 125.04Z" fill="#D4AF37"/>
<path d="M199.349 204.091L190.236 206.402C187.316 207.155 184.148 205.51 183.395 202.59L181.084 193.477C180.331 190.557 181.976 187.389 184.896 186.636L194.009 184.325C196.929 183.572 200.097 185.217 200.85 188.137L203.161 197.25C203.904 200.17 202.269 203.338 199.349 204.091Z" fill="#D4AF37"/>
<path d="M153.957 289.878L146.436 291.802C143.992 292.417 141.341 291.077 140.726 288.633L138.791 281.112C138.176 278.668 139.516 276.017 141.96 275.402L149.481 273.467C151.925 272.852 154.576 274.192 155.191 276.636L157.126 284.157C157.741 286.601 156.401 289.252 153.957 289.878Z" fill="#D4AF37"/>
<path d="M193.189 360.598L186.534 362.296C184.453 362.834 182.201 361.649 181.663 359.568L179.965 352.913C179.427 350.832 180.612 348.58 182.693 348.042L189.348 346.344C191.429 345.806 193.681 346.991 194.219 349.072L195.917 355.727C196.445 357.808 195.26 360.06 193.189 360.598Z" fill="#D4AF37"/>
<path d="M284.026 430.297L276.43 432.227C273.97 432.844 271.309 431.503 270.692 429.043L268.762 421.447C268.145 418.987 269.486 416.326 271.946 415.709L279.542 413.779C282.002 413.162 284.663 414.503 285.28 416.963L287.21 424.559C287.817 427.019 286.486 429.68 284.026 430.297Z" fill="#D4AF37"/>
<path d="M379.742 417.844L372.483 419.664C370.187 420.245 367.702 419.006 367.121 416.71L365.291 409.451C364.71 407.155 365.949 404.67 368.245 404.089L375.504 402.269C377.79 401.688 380.285 402.927 380.866 405.223L382.696 412.482C383.277 414.778 382.028 417.263 379.742 417.844Z" fill="#D4AF37"/>
<path d="M447.857 375.093L439.463 377.199C436.804 377.876 434.004 376.425 433.327 373.766L431.221 365.372C430.544 362.713 431.995 359.913 434.654 359.236L443.048 357.13C445.707 356.453 448.507 357.904 449.184 360.563L451.29 368.957C451.967 371.616 450.516 374.416 447.857 375.093Z" fill="#D4AF37"/>
<path d="M479.284 274.96L465.342 278.471C460.602 279.671 455.517 277.014 454.317 272.274L450.806 258.332C449.606 253.592 452.263 248.507 457.003 247.306L470.944 243.796C475.684 242.596 480.769 245.253 481.969 250.003L485.48 263.944C486.671 268.684 484.024 273.769 479.284 274.96Z" fill="#D4AF37"/>
<path d="M409.079 177.348L398.921 180.015C395.744 180.84 392.302 179.053 391.477 175.876L388.81 165.718C387.985 162.541 389.772 159.099 392.949 158.274L403.107 155.607C406.284 154.782 409.726 156.569 410.551 159.746L413.218 169.904C414.043 173.081 412.256 176.533 409.079 177.348Z" fill="#D4AF37"/>
<path d="M312.395 125.04L300.99 127.877C297.351 128.818 293.414 126.68 292.473 123.041L289.636 111.636C288.695 107.997 290.833 104.06 294.472 103.119L305.877 100.282C309.516 99.341 313.453 101.479 314.394 105.118L317.231 116.523C318.172 120.162 316.034 124.099 312.395 125.04Z" fill="#D4AF37"/>
<path d="M199.349 204.091L190.236 206.402C187.316 207.155 184.148 205.51 183.395 202.59L181.084 193.477C180.331 190.557 181.976 187.389 184.896 186.636L194.009 184.325C196.929 183.572 200.097 185.217 200.85 188.137L203.161 197.25C203.904 200.17 202.269 203.338 199.349 204.091Z" fill="#D4AF37"/>
<path d="M153.957 289.878L146.436 291.802C143.992 292.417 141.341 291.077 140.726 288.633L138.791 281.112C138.176 278.668 139.516 276.017 141.96 275.402L149.481 273.467C151.925 272.852 154.576 274.192 155.191 276.636L157.126 284.157C157.741 286.601 156.401 289.252 153.957 289.878Z" fill="#D4AF37"/>
<path d="M193.189 360.598L186.534 362.296C184.453 362.834 182.201 361.649 181.663 359.568L179.965 352.913C179.427 350.832 180.612 348.58 182.693 348.042L189.348 346.344C191.429 345.806 193.681 346.991 194.219 349.072L195.917 355.727C196.445 357.808 195.26 360.06 193.189 360.598Z" fill="#D4AF37"/>
<path d="M284.026 430.297L276.43 432.227C273.97 432.844 271.309 431.503 270.692 429.043L268.762 421.447C268.145 418.987 269.486 416.326 271.946 415.709L279.542 413.779C282.002 413.162 284.663 414.503 285.28 416.963L287.21 424.559C287.817 427.019 286.486 429.68 284.026 430.297Z" fill="#D4AF37"/>
<path d="M379.742 417.844L372.483 419.664C370.187 420.245 367.702 419.006 367.121 416.71L365.291 409.451C364.71 407.155 365.949 404.67 368.245 404.089L375.504 402.269C377.79 401.688 380.285 402.927 380.866 405.223L382.696 412.482C383.277 414.778 382.028 417.263 379.742 417.844Z" fill="#D4AF37"/>
<path d="M447.857 375.093L439.463 377.199C436.804 377.876 434.004 376.425 433.327 373.766L431.221 365.372C430.544 362.713 431.995 359.913 434.654 359.236L443.048 357.13C445.707 356.453 448.507 357.904 449.184 360.563L451.29 368.957C451.967 371.616 450.516 374.416 447.857 375.093Z" fill="#D4AF37"/>
<rect x="175" y="145" width="230" height="290" rx="20" fill="#D4AF37"/>
<rect x="175" y="145" width="230" height="290" rx="20" stroke="black" stroke-width="8"/>
<path d="M289.91 217.5L245.91 300L289.91 382.5L333.91 300L289.91 217.5Z" stroke="black" stroke-width="8"/>
<path d="M289.91 217.5L333.91 300L289.91 382.5L245.91 300L289.91 217.5Z" stroke="black" stroke-width="8"/>
<path d="M245.91 300H333.91" stroke="black" stroke-width="8"/>
<rect x="235" y="105" width="230" height="290" rx="20" fill="#D4AF37"/>
<rect x="235" y="105" width="230" height="290" rx="20" stroke="black" stroke-width="8"/>
<path d="M380.098 174.457C380.098 174.457 396.698 171.742 405.098 178.636C413.498 185.529 411.398 205.418 405.098 213.912C398.798 222.406 385.198 221.055 380.098 213.912C374.998 206.769 375.998 190.505 380.098 174.457Z" fill="black" stroke="black" stroke-width="8"/>
<path d="M312.395 125.04L300.99 127.877C297.351 128.818 293.414 126.68 292.473 123.041L289.636 111.636C288.695 107.997 290.833 104.06 294.472 103.119L305.877 100.282C309.516 99.341 313.453 101.479 314.394 105.118L317.231 116.523C318.172 120.162 316.034 124.099 312.395 125.04Z" fill="black" stroke="black" stroke-width="8"/>
<path d="M479.284 274.96L465.342 278.471C460.602 279.671 455.517 277.014 454.317 272.274L450.806 258.332C449.606 253.592 452.263 248.507 457.003 247.306L470.944 243.796C475.684 242.596 480.769 245.253 481.969 250.003L485.48 263.944C486.671 268.684 484.024 273.769 479.284 274.96Z" fill="black" stroke="black" stroke-width="8"/>
</svg>